<svg width="44" height="40" viewBox="0 0 44 40" fill="none" xmlns="http://www.w3.org/2000/svg">
<path d="M10.598 12H13.402L12 8.91699L10.598 12Z" fill="#FFFCFC"/>
<path d="M19 0H5C3.6744 0.00158786 2.40356 0.528882 1.46622 1.46622C0.528882 2.40356 0.00158786 3.6744 0 5V19C0.00158786 20.3256 0.528882 21.5964 1.46622 22.5338C2.40356 23.4711 3.6744 23.9984 5 24H18V21C18.002 19.3182 18.6094 17.6932 19.7112 16.4225C20.813 15.1518 22.3354 14.3203 24 14.08V5C23.9984 3.6744 23.4711 2.40356 22.5338 1.46622C21.5964 0.528882 20.3256 0.00158786 19 0ZM17.414 18.41C17.2942 18.4642 17.165 18.4943 17.0336 18.4985C16.9022 18.5027 16.7713 18.4809 16.6483 18.4345C16.5254 18.3881 16.4128 18.3178 16.317 18.2278C16.2211 18.1378 16.144 18.0298 16.09 17.91L14.311 14H9.689L7.91 17.914C7.79647 18.1494 7.59531 18.331 7.34958 18.4199C7.10384 18.5088 6.83306 18.498 6.59519 18.3898C6.35732 18.2816 6.17127 18.0845 6.07685 17.8409C5.98243 17.5972 5.98715 17.3262 6.09 17.086L11.09 6.086C11.1695 5.91141 11.2976 5.76339 11.459 5.65959C11.6203 5.5558 11.8081 5.50061 12 5.50061C12.1919 5.50061 12.3797 5.5558 12.541 5.65959C12.7024 5.76339 12.8305 5.91141 12.91 6.086L17.91 17.086C18.0197 17.3274 18.0291 17.6024 17.9361 17.8507C17.8431 18.099 17.6553 18.3001 17.414 18.41Z" fill="white"/>
<path d="M39 16H25C23.6744 16.0016 22.4036 16.5289 21.4662 17.4662C20.5289 18.4036 20.0016 19.6744 20 21V35C20.0016 36.3256 20.5289 37.5964 21.4662 38.5338C22.4036 39.4711 23.6744 39.9984 25 40H39C40.3256 39.9984 41.5964 39.4711 42.5338 38.5338C43.4711 37.5964 43.9984 36.3256 44 35V21C43.9984 19.6744 43.4711 18.4036 42.5338 17.4662C41.5964 16.5289 40.3256 16.0016 39 16ZM37 26H36.441C36.2099 28.0648 35.2694 29.9854 33.78 31.434C34.6393 31.8038 35.5645 31.9964 36.5 32C36.7689 31.9988 37.0277 32.1027 37.2212 32.2895C37.4147 32.4762 37.5277 32.7312 37.536 33C37.54 33.1295 37.518 33.2584 37.4714 33.3793C37.4248 33.5001 37.3544 33.6104 37.2645 33.7036C37.1745 33.7968 37.0668 33.871 36.9477 33.9219C36.8286 33.9729 36.7005 33.9994 36.571 34C34.9725 33.9956 33.4031 33.5715 32.02 32.77C30.6496 33.5748 29.0893 33.9994 27.5 34C27.2311 34.0012 26.9723 33.8973 26.7788 33.7105C26.5853 33.5238 26.4723 33.2688 26.464 33C26.46 32.8705 26.482 32.7416 26.5286 32.6207C26.5752 32.4999 26.6456 32.3896 26.7355 32.2964C26.8255 32.2032 26.9332 32.129 27.0523 32.0781C27.1714 32.0271 27.2995 32.0006 27.429 32C28.3952 32.0012 29.3516 31.8059 30.24 31.426C29.465 30.6884 28.8298 29.8167 28.365 28.853C28.3008 28.7335 28.2615 28.6021 28.2497 28.467C28.2378 28.3318 28.2536 28.1956 28.2961 28.0667C28.3385 27.9379 28.4067 27.819 28.4966 27.7173C28.5865 27.6157 28.6961 27.5333 28.8188 27.4754C28.9415 27.4174 29.0747 27.3851 29.2103 27.3802C29.3459 27.3754 29.481 27.3982 29.6075 27.4473C29.734 27.4964 29.8492 27.5707 29.9461 27.6657C30.043 27.7607 30.1195 27.8745 30.171 28C30.6024 28.906 31.2242 29.7083 31.994 30.352C33.312 29.2504 34.1761 27.7003 34.42 26H27C26.7348 26 26.4804 25.8946 26.2929 25.7071C26.1054 25.5196 26 25.2652 26 25C26 24.7348 26.1054 24.4804 26.2929 24.2929C26.4804 24.1054 26.7348 24 27 24H31V22C31 21.7348 31.1054 21.4804 31.2929 21.2929C31.4804 21.1054 31.7348 21 32 21C32.2652 21 32.5196 21.1054 32.7071 21.2929C32.8946 21.4804 33 21.7348 33 22V24H37C37.2652 24 37.5196 24.1054 37.7071 24.2929C37.8946 24.4804 38 24.7348 38 25C38 25.2652 37.8946 25.5196 37.7071 25.7071C37.5196 25.8946 37.2652 26 37 26Z" fill="white"/>
<path d="M36 5H31.414L31.707 4.707C31.8025 4.61476 31.8787 4.50441 31.9311 4.38241C31.9835 4.26041 32.0111 4.12919 32.0123 3.99641C32.0134 3.86363 31.9881 3.73195 31.9379 3.60905C31.8876 3.48615 31.8133 3.3745 31.7194 3.28061C31.6255 3.18672 31.5139 3.11246 31.391 3.06218C31.2681 3.0119 31.1364 2.9866 31.0036 2.98775C30.8708 2.98891 30.7396 3.01649 30.6176 3.0689C30.4956 3.12131 30.3853 3.19749 30.293 3.29301L28.293 5.293C28.1056 5.48053 28.0002 5.73484 28.0002 6C28.0002 6.26517 28.1056 6.51948 28.293 6.707L30.293 8.707C30.4816 8.88916 30.7342 8.98996 30.9964 8.98768C31.2586 8.9854 31.5094 8.88023 31.6949 8.69482C31.8803 8.50942 31.9854 8.2586 31.9877 7.99641C31.99 7.73421 31.8892 7.48161 31.707 7.293L31.414 7H36C36.2652 7 36.5196 7.10536 36.7071 7.2929C36.8947 7.48043 37 7.73479 37 8V11C37 11.2652 37.1054 11.5196 37.2929 11.7071C37.4805 11.8946 37.7348 12 38 12C38.2652 12 38.5196 11.8946 38.7071 11.7071C38.8947 11.5196 39 11.2652 39 11V8C39 7.20436 38.684 6.44129 38.1213 5.87868C37.5587 5.31607 36.7957 5 36 5Z" fill="#FFFBFB"/>
<path d="M13.707 31.293C13.5184 31.1108 13.2658 31.01 13.0036 31.0123C12.7414 31.0146 12.4906 31.1198 12.3052 31.3052C12.1198 31.4906 12.0146 31.7414 12.0123 32.0036C12.01 32.2658 12.1108 32.5184 12.293 32.707L12.586 33H8C7.73478 33 7.48043 32.8946 7.29289 32.7071C7.10536 32.5196 7 32.2652 7 32V29C7 28.7348 6.89464 28.4804 6.70711 28.2929C6.51957 28.1054 6.26522 28 6 28C5.73478 28 5.48043 28.1054 5.29289 28.2929C5.10536 28.4804 5 28.7348 5 29V32C5 32.7956 5.31607 33.5587 5.87868 34.1213C6.44129 34.6839 7.20435 35 8 35H12.586L12.293 35.293C12.1975 35.3852 12.1213 35.4956 12.0689 35.6176C12.0165 35.7396 11.9889 35.8708 11.9877 36.0036C11.9866 36.1364 12.0119 36.2681 12.0622 36.391C12.1125 36.5138 12.1867 36.6255 12.2806 36.7194C12.3745 36.8133 12.4861 36.8875 12.609 36.9378C12.7319 36.9881 12.8636 37.0134 12.9964 37.0122C13.1292 37.0111 13.2604 36.9835 13.3824 36.9311C13.5044 36.8787 13.6148 36.8025 13.707 36.707L15.707 34.707C15.8945 34.5195 15.9998 34.2652 15.9998 34C15.9998 33.7348 15.8945 33.4805 15.707 33.293L13.707 31.293Z" fill="white"/>
</svg>
